[img]http://lookpic.com/cdn/i2/s/Gentl01122024090656-001.jpg[/img]
[img]http://lookpic.com/cdn/i2/s/Gentl01122024090656-002.jpg[/img]
[img]http://lookpic.com/cdn/i2/s/Gentl01122024090656-003.jpg[/img]

General
Complete name                            : Gentle.2022.720p.WEBRip.x264.AAC-WORLD.mp4
Format                                   : MPEG-4
Format profile                           : Base Media
Codec ID                                 : isom (isom/iso2/avc1/mp41)
File size                                : 818 MiB
Duration                                 : 1 h 29 min
Overall bit rate                         : 1 284 kb/s
Writing application                      : Lavf60.11.100

Video
ID                                       : 1
Format                                   : AVC
Format/Info                              : Advanced Video Codec
Format profile                           : High@L4.1
Format settings                          : CABAC / 4 Ref Frames
Format settings, CABAC                   : Yes
Format settings, Reference frames        : 4 frames
Codec ID                                 : avc1
Codec ID/Info                            : Advanced Video Coding
Duration                                 : 1 h 29 min
Bit rate                                 : 1 150 kb/s
Maximum bit rate                         : 31.2 Mb/s
Width                                    : 1 280 pixels
Height                                   : 536 pixels
Display aspect ratio                     : 2.40:1
Frame rate mode                          : Constant
Frame rate                               : 25.000 FPS
Color space                              : YUV
Chroma subsampling                       : 4:2:0
Bit depth                                : 8 bits
Scan type                                : Progressive
Bits/(Pixel*Frame)                       : 0.067
Stream size                              : 732 MiB (90%)
Color range                              : Limited
Color primaries                          : BT.709
Transfer characteristics                 : BT.709
Matrix coefficients                      : BT.709
Menus                                    : 0
Codec configuration box                  : avcC

Audio
ID                                       : 2
Format                                   : AAC LC
Format/Info                              : Advanced Audio Codec Low Complexity
Codec ID                                 : mp4a-40-2
Duration                                 : 1 h 29 min
Source duration                          : 1 h 29 min
Source_Duration_LastFrame                : -11 ms
Bit rate mode                            : Constant
Bit rate                                 : 128 kb/s
Channel(s)                               : 2 channels
Channel layout                           : L R
Sampling rate                            : 48.0 kHz
Frame rate                               : 46.875 FPS (1024 SPF)
Compression mode                         : Lossy
Stream size                              : 81.8 MiB (10%)
Source stream size                       : 81.8 MiB (10%)
Default                                  : Yes
Alternate group                          : 1
Menus                                    : 0

Menu



